<?xml version="1.0" encoding="utf-8"?>
<!-- Generator: Adobe Illustrator 25.4.1, SVG Export Plug-In . SVG Version: 6.00 Build 0)  -->
<svg version="1.1" xmlns="http://www.w3.org/2000/svg" xmlns:xlink="http://www.w3.org/1999/xlink" x="0px" y="0px"
	 viewBox="0 0 745.87 236.44" style="enable-background:new 0 0 745.87 236.44;" xml:space="preserve">
<style type="text/css">
	.st0{fill:none;stroke:#FFFFFF;stroke-width:24;stroke-miterlimit:10;}
	.st1{fill:none;stroke:#FFFFFF;stroke-width:15;stroke-miterlimit:10;}
	.st2{fill:none;stroke:#FFFFFF;stroke-width:14;stroke-miterlimit:10;}
</style>
<g id="base_00000134934306951730233210000005585746168098823057_">
	<path d="M93.99,44.26C78.12,46.34,55.44,69.2,39.37,96.8c-26.08,45.93-17.77,72.01-0.76,74.28c21.17,2.83,58.97-43.66,69.74-58.21
		c1.7-0.95,4.91,0.94,4.16,2.83c-3.59,9.07-34.21,47.25-53.11,57.46c-15.12,8.13-31.94,2.65-41.77-5.86
		c-11.53-10.02-14.17-29.11,2.83-63.69c20.41-40.82,52.35-65.58,65.58-66.72c10.21-0.94,32.32,9.83,26.65,21.36
		c-6.99,13.42-16.25,19.66-20.79,23.44c-4.16,3.4-8.88,2.08-5.29-2.83c3.78-5.48,19.28-27.4,14.55-32.13
		C99.1,44.82,96.45,44.26,93.99,44.26z M154.85,109.84c2.27,2.46,3.97,5.67,2.46,7.56c-2.83,3.78-4.16,6.61-8.69,15.88
		c-4.91,10.96-5.29,21.36,1.51,20.41c8.88-1.13,32.7-32.13,37.23-39.69c1.51-1.51,4.16-0.38,4.35,1.7
		c-3.97,7.56-22.3,34.21-33.26,41.77c-9.26,6.43-17.58,1.51-22.87-3.78c-3.4-3.4-2.46-14.17,0.94-21.17
		c-5.29,7.94-18.9,23.81-27.22,27.97c-5.29,2.46-16.25-3.78-17.39-10.39c-1.51-8.69,6.24-27.97,19.66-42.9
		c13.99-15.5,24.95-20.03,33.64-21.92c9.83-2.08,24.76,7.94,22.3,14.36C165.24,104.55,157.87,109.46,154.85,109.84z M153.53,108.7
		c0.57-3.4,7.56-13.8,2.83-16.44c-5.29-2.83-24.38,8.5-34.21,22.11c-16.06,22.11-20.6,37.8-16.44,38.56
		c6.99,1.32,34.96-31.37,42.15-44.41C148.99,106.63,151.26,107.19,153.53,108.7z M222.64,94.34c5.86,1.51,11.34,3.97,5.1,11.91
		c-9.45,12.47-24.95,45.74-15.12,47.44c5.48,1.13,31.18-29.86,37.61-39.69c1.32-1.13,4.72-1.32,4.35,1.7
		c-4.16,9.45-22.49,32.88-33.83,41.58c-7.75,5.86-22.3,1.51-23.81-9.45c-2.46-14.17,12.66-37.99,16.63-45.17
		c2.46-3.97-3.21-4.35-8.69-5.29c-4.72,7.18-13.42,20.03-20.22,29.86c-2.27,2.08-6.05,0.19-5.1-2.27
		c3.59-5.67,14.74-21.73,18.71-29.11c-1.13-0.57-1.89-1.32-2.08-2.46c-2.08-6.05,6.61-22.87,10.96-24.57
		c2.83-1.13,8.5,3.4,7.94,6.99c-0.57,3.4-5.1,13.99-7.94,18.33C210.17,94.15,219.62,93.59,222.64,94.34z M256.61,126.47
		c5.1-8.69,22.87-36.1,34.02-39.12c8.88-2.83,16.63,6.99,17.39,12.47c1.89,12.47-13.61,44.04-28.92,55.75
		c3.21-0.76,6.8-2.08,10.77-3.97c14.36-6.8,31-29.29,36.67-37.61c2.27-1.7,5.29-0.76,4.16,2.46c-4.54,8.69-21.73,32.13-36.67,39.88
		c-19.66,10.21-38.37,4.16-48-1.51c-9.07,18.33-15.88,38.55-19.66,55.38c-3.59,2.46-12.66-1.32-10.96-8.88
		c2.08-8.88,10.21-28.92,20.22-54.05c11.15-27.97,29.48-61.8,29.48-67.28c3.59-3.21,13.61-1.13,11.91,3.78
		C274.19,90.56,260.77,117.97,256.61,126.47z M248.86,150.28c4.91,2.08,10.58,3.97,14.93,2.65c14.55-4.16,42.9-58.21,30.43-59.72
		C286.28,92.07,261.15,130.06,248.86,150.28z M332.45,132.14c-1.32,3.59-1.89,6.99-1.7,9.83c0.38,8.32,2.08,11.72,8.5,12.28
		c8.32,0.76,23.62-10.96,31.94-21.92c1.89-1.51,3.59-0.38,3.4,2.27c-6.99,13.04-16.63,23.06-23.25,25.7
		c-10.39,4.16-28.54-3.78-31.75-16.06c-4.54-17.58,14.17-48.76,30.05-56.32c13.04-6.24,28.92,4.91,27.22,13.23
		C374.98,109.27,347.57,125.34,332.45,132.14z M335.86,124.2c17.2-9.07,37.61-25.14,28.54-30.24
		C359.67,91.32,344.17,107.95,335.86,124.2z M472.07,102.28c-11.34,23.06-21.73,57.08-10.02,50.65
		c7.56-3.78,31.37-33.64,36.29-40.63c1.7-1.13,4.16-0.38,3.78,2.83c-3.4,6.99-26.27,38.56-35.15,43.47
		c-6.05,3.59-20.98,1.32-22.49-10.4c-0.57-3.78-0.19-8.32,1.32-14.74c-7.94,10.77-18.33,22.49-24.57,25.51
		c-3.59,1.89-14.36-0.76-17.01-8.5c-4.35-12.47,16.44-52.35,34.02-60.29c9.26-4.16,18.52,0,23.62,3.97
		c7.75-14.93,15.88-33.07,25.7-48.76c3.97-4.91,17.58-5.1,15.31-1.32C500.04,49.17,493.05,58.24,472.07,102.28z M452.79,113.24
		l6.62-14.17c-3.21-2.83-7.37-5.1-12.28-3.02c-13.99,5.86-37.42,55.56-30.05,55.94C422.17,152.36,444.29,128.17,452.79,113.24z
		 M518.37,100.2c-1.13,4.16-4.54,7.94-10.77,20.03c-10.58,20.41-13.42,34.78-6.05,33.45c10.02-1.89,33.26-32.32,38.18-40.26
		c2.65-1.51,4.16,0.76,4.16,2.27c-3.97,10.96-23.81,36.1-32.88,41.58c-9.45,5.67-17.96,2.08-22.3-2.46
		c-4.35-4.73-4.72-14.93,3.78-32.51c7.37-15.31,13.99-22.68,14.55-27.78C509.3,91.51,519.51,95.1,518.37,100.2z M521.78,67.88
		c4.54-3.21,11.53-3.78,15.31-0.57c2.65,2.08,0.95,6.05-1.7,8.13c-2.83,2.27-8.13,3.4-12.85,2.83
		C518,77.71,517.05,71.28,521.78,67.88z M544.83,132.52c-1.32,3.59-2.08,6.99-2.27,10.02c-0.19,5.29,2.27,11.15,8.5,11.91
		c17.77,2.08,40.45-30.81,48.76-41.2c2.08-2.27,4.72-1.51,4.91,0.76c-6.05,12.1-22.87,36.48-38.93,44.98
		c-11.15,5.86-29.86,0.57-34.4-12.1c-6.99-19.66,14.93-51.6,30.81-59.16c13.04-6.24,27.59,6.99,26.27,15.31
		C586.98,112.67,560.14,126.28,544.83,132.52z M548.05,124.77c17.01-9.26,37.23-26.27,28.92-30.81
		C572.05,91.51,556.55,107.95,548.05,124.77z M597.56,142.16c0,0,36.29-44.98,48.38-50.27c4.72-2.27,14.93,0.94,13.42,7.18
		c-1.51,8.88-15.69,36.67-18.71,44.23c0,0,35.72-44.04,50.65-49.52c7.56-2.65,13.8,3.78,11.91,7.75
		c-4.72,11.72-23.81,51.03-16.25,54.62c4.54,2.27,20.6-12.47,25.7-21.17c1.7-2.08,3.78-2.08,3.59,1.89
		c-2.27,6.8-10.4,20.41-19.66,25.33c-7.56,3.97-22.3-3.21-23.25-12.66c-1.51-15.69,17.77-45.74,16.25-46.68
		c-4.91-2.46-48.95,49.14-51.03,55c-1.7,5.67-16.44,0-14.17-6.05c3.21-6.24,24.57-50.46,19.47-50.46
		c-4.35,0-45.55,49.14-47.06,55.56c-0.95,6.24-15.31-1.13-14.93-6.05c0.38-7.75,25.51-54.05,30.62-59.16
		c4.54-4.73,13.23,1.13,10.21,4.54C617.98,102.09,597.56,142.16,597.56,142.16z"/>
</g>
</svg>
