<?xml version="1.0" encoding="utf-8"?>
<!-- Generator: Adobe Illustrator 25.4.1, SVG Export Plug-In . SVG Version: 6.00 Build 0)  -->
<svg version="1.1" xmlns="http://www.w3.org/2000/svg" xmlns:xlink="http://www.w3.org/1999/xlink" x="0px" y="0px"
	 viewBox="0 0 1062.22 236.44" style="enable-background:new 0 0 1062.22 236.44;" xml:space="preserve">
<style type="text/css">
	.st0{fill:none;stroke:#FFFFFF;stroke-width:16;stroke-miterlimit:10;}
	.st1{fill:none;stroke:#FFFFFF;stroke-width:13;stroke-miterlimit:10;}
	.st2{fill:none;stroke:#FFFFFF;stroke-width:17;stroke-miterlimit:10;}
</style>
<g id="base_00000134934306951730233210000005585746168098823057_">
	<path d="M127.81,51.18c-15.88,2.08-38.55,24.95-54.62,52.54C47.1,149.65,55.42,175.73,72.43,178
		c21.17,2.83,58.97-43.66,69.74-58.21c1.7-0.95,4.91,0.94,4.16,2.83c-3.59,9.07-34.21,47.25-53.11,57.45
		c-15.12,8.13-31.94,2.65-41.77-5.86c-11.53-10.02-14.17-29.1,2.83-63.69c20.41-40.82,52.35-65.58,65.58-66.72
		c10.21-0.94,32.32,9.83,26.65,21.36c-6.99,13.42-16.25,19.66-20.79,23.44c-4.16,3.4-8.88,2.08-5.29-2.83
		c3.78-5.48,19.28-27.4,14.55-32.13C132.91,51.75,130.26,51.18,127.81,51.18z M184.66,116.76c2.27,2.46,3.97,5.67,2.46,7.56
		c-2.83,3.78-4.16,6.61-8.69,15.88c-4.91,10.96-5.29,21.36,1.51,20.41c8.88-1.13,32.7-32.13,37.23-39.69
		c1.51-1.51,4.16-0.38,4.35,1.7c-3.97,7.56-22.3,34.21-33.26,41.77c-9.26,6.43-17.58,1.51-22.87-3.78
		c-3.4-3.4-2.46-14.17,0.95-21.17c-5.29,7.94-18.9,23.81-27.22,27.97c-5.29,2.46-16.25-3.78-17.39-10.4
		c-1.51-8.69,6.24-27.97,19.66-42.9c13.99-15.5,24.95-20.03,33.64-21.92c9.83-2.08,24.76,7.94,22.3,14.36
		C195.06,111.47,187.69,116.39,184.66,116.76z M183.34,115.63c0.57-3.4,7.56-13.8,2.83-16.44c-5.29-2.83-24.38,8.5-34.21,22.11
		c-16.07,22.11-20.6,37.8-16.44,38.55c6.99,1.32,34.96-31.37,42.15-44.41C178.8,113.55,181.07,114.12,183.34,115.63z M252.46,101.27
		c5.86,1.51,11.34,3.97,5.1,11.91c-9.45,12.47-24.95,45.74-15.12,47.44c5.48,1.13,31.18-29.86,37.61-39.69
		c1.32-1.13,4.72-1.32,4.35,1.7c-4.16,9.45-22.49,32.88-33.83,41.58c-7.75,5.86-22.3,1.51-23.81-9.45
		c-2.46-14.17,12.66-37.99,16.63-45.17c2.46-3.97-3.21-4.35-8.69-5.29c-4.72,7.18-13.42,20.03-20.22,29.86
		c-2.27,2.08-6.05,0.19-5.1-2.27c3.59-5.67,14.74-21.73,18.71-29.11c-1.13-0.57-1.89-1.32-2.08-2.46
		c-2.08-6.05,6.61-22.87,10.96-24.57c2.83-1.13,8.5,3.4,7.94,6.99c-0.57,3.4-5.1,13.99-7.94,18.33
		C239.98,101.08,249.43,100.51,252.46,101.27z M284.29,133.4c5.1-8.69,22.87-36.1,34.02-39.12c8.88-2.83,16.63,6.99,17.39,12.47
		c1.89,12.47-13.61,44.04-28.92,55.75c3.21-0.76,6.8-2.08,10.77-3.97c14.36-6.8,31-29.29,36.67-37.61c2.27-1.7,5.29-0.76,4.16,2.46
		c-4.54,8.69-21.73,32.13-36.67,39.88c-19.66,10.21-38.37,4.16-48-1.51c-9.07,18.33-15.88,38.55-19.66,55.37
		c-3.59,2.46-12.66-1.32-10.96-8.88c2.08-8.88,10.21-28.92,20.22-54.05c11.15-27.97,29.48-61.8,29.48-67.28
		c3.59-3.21,13.61-1.13,11.91,3.78C301.86,97.49,288.45,124.89,284.29,133.4z M276.54,157.21c4.91,2.08,10.58,3.97,14.93,2.65
		c14.55-4.16,42.9-58.21,30.43-59.72C313.96,99,288.82,136.99,276.54,157.21z M352.13,139.07c-1.32,3.59-1.89,6.99-1.7,9.83
		c0.38,8.32,2.08,11.72,8.5,12.28c8.32,0.76,23.62-10.96,31.94-21.92c1.89-1.51,3.59-0.38,3.4,2.27
		c-6.99,13.04-16.63,23.06-23.25,25.7c-10.39,4.16-28.54-3.78-31.75-16.06c-4.54-17.58,14.17-48.76,30.05-56.32
		c13.04-6.24,28.92,4.91,27.22,13.23C394.65,116.2,367.25,132.26,352.13,139.07z M355.53,131.13c17.2-9.07,37.61-25.14,28.54-30.24
		C379.35,98.24,363.85,114.87,355.53,131.13z M485.75,109.2c-11.34,23.06-21.73,57.08-10.02,50.65
		c7.56-3.78,31.37-33.64,36.29-40.63c1.7-1.13,4.16-0.38,3.78,2.83c-3.4,6.99-26.27,38.56-35.15,43.47
		c-6.05,3.59-20.98,1.32-22.49-10.39c-0.57-3.78-0.19-8.32,1.32-14.74c-7.94,10.77-18.33,22.49-24.57,25.51
		c-3.59,1.89-14.36-0.76-17.01-8.5c-4.35-12.47,16.44-52.35,34.02-60.29c9.26-4.16,18.52,0,23.62,3.97
		c7.75-14.93,15.88-33.07,25.7-48.76c3.97-4.91,17.58-5.1,15.31-1.32C513.72,56.1,506.73,65.17,485.75,109.2z M466.47,120.17
		l6.62-14.17c-3.21-2.83-7.37-5.1-12.28-3.02c-13.99,5.86-37.42,55.56-30.05,55.94C435.85,159.29,457.96,135.1,466.47,120.17z
		 M529.05,107.13c-1.13,4.16-4.54,7.94-10.77,20.03c-10.58,20.41-13.42,34.77-6.05,33.45c10.02-1.89,33.26-32.32,38.18-40.26
		c2.65-1.51,4.16,0.76,4.16,2.27c-3.97,10.96-23.81,36.1-32.88,41.58c-9.45,5.67-17.96,2.08-22.3-2.46
		c-4.35-4.73-4.72-14.93,3.78-32.51c7.37-15.31,13.99-22.68,14.55-27.78C519.98,98.43,530.18,102.02,529.05,107.13z M528.67,74.81
		c4.54-3.21,11.53-3.78,15.31-0.57c2.65,2.08,0.95,6.05-1.7,8.13c-2.83,2.27-8.13,3.4-12.85,2.83
		C524.89,84.63,523.95,78.21,528.67,74.81z M549.51,139.44c-1.32,3.59-2.08,6.99-2.27,10.02c-0.19,5.29,2.27,11.15,8.5,11.91
		c17.77,2.08,40.45-30.81,48.76-41.2c2.08-2.27,4.72-1.51,4.91,0.76c-6.05,12.1-22.87,36.48-38.93,44.98
		c-11.15,5.86-29.86,0.57-34.4-12.1c-6.99-19.66,14.93-51.6,30.81-59.16c13.04-6.24,27.59,6.99,26.27,15.31
		C591.66,119.6,564.82,133.21,549.51,139.44z M552.72,131.69c17.01-9.26,37.23-26.27,28.92-30.81
		C576.73,98.43,561.23,114.87,552.72,131.69z M599.24,149.08c0,0,36.29-44.98,48.38-50.27c4.72-2.27,14.93,0.94,13.42,7.18
		c-1.51,8.88-15.69,36.67-18.71,44.22c0,0,35.72-44.04,50.65-49.52c7.56-2.65,13.8,3.78,11.91,7.75
		c-4.72,11.72-23.81,51.03-16.25,54.62c4.54,2.27,20.6-12.47,25.7-21.17c1.7-2.08,3.78-2.08,3.59,1.89
		c-2.27,6.8-10.4,20.41-19.66,25.32c-7.56,3.97-22.3-3.21-23.25-12.66c-1.51-15.69,17.77-45.74,16.25-46.68
		c-4.91-2.46-48.95,49.14-51.03,55c-1.7,5.67-16.44,0-14.17-6.05c3.21-6.24,24.57-50.46,19.47-50.46
		c-4.35,0-45.55,49.14-47.06,55.56c-0.95,6.24-15.31-1.13-14.93-6.05c0.38-7.75,25.51-54.05,30.62-59.16
		c4.54-4.73,13.23,1.13,10.21,4.54C619.65,109.02,599.24,149.08,599.24,149.08z M754.17,149.08c0,0,34.59-45.36,48.38-50.27
		c5.1-1.89,14.17,2.83,12.66,9.07c-1.32,8.88-14.74,34.77-17.95,42.33c0,0,35.72-44.04,50.65-49.52c7.56-2.65,13.61,5.1,11.72,9.07
		c-4.54,10.02-24.95,47.25-17.39,50.84c4.54,2.27,32.51-31.56,38.18-40.82c2.27-2.46,4.72,0.94,3.78,2.83
		c-2.27,6.8-25.33,38.55-34.77,42.9c-9.64,4.54-21.17-1.7-21.17-9.64c0.19-15.31,19.66-45.17,17.96-46.11
		c-4.91-2.46-48.95,49.14-50.84,55c-1.89,5.67-15.88-0.94-13.42-6.99c3.02-6.24,23.81-49.52,18.52-49.52
		c-4.35,0-45.55,49.14-46.87,55.56c-3.02,3.78-15.31-1.13-14.93-6.05c0.38-7.75,27.59-51.22,29.67-59.16
		c3.21-3.02,10.96,0.38,10.02,4.54C776.85,110.15,754.17,149.08,754.17,149.08z M901.77,107.13c-1.13,4.16-4.54,7.94-10.77,20.03
		c-10.58,20.41-13.42,34.77-6.05,33.45c10.02-1.89,33.26-32.32,38.18-40.26c2.65-1.51,4.16,0.76,4.16,2.27
		c-3.97,10.96-23.81,36.1-32.88,41.58c-9.45,5.67-17.96,2.08-22.3-2.46c-4.35-4.73-4.72-14.93,3.78-32.51
		c7.37-15.31,13.99-22.68,14.55-27.78C892.7,98.43,902.91,102.02,901.77,107.13z M901.4,74.81c4.54-3.21,11.53-3.78,15.31-0.57
		c2.65,2.08,0.95,6.05-1.7,8.13c-2.83,2.27-8.13,3.4-12.85,2.83C897.62,84.63,896.67,78.21,901.4,74.81z M947.89,95.97
		c8.5,0,16.06,0.19,17.01,1.32c2.08,2.65,0.38,5.48-2.65,5.29c-1.51-0.76-8.88-0.94-17.2-0.94c-1.32,2.46-2.46,4.91-3.4,7.18
		c-10.21,23.25-23.62,55.94-10.39,51.6c6.99-2.27,31.56-33.07,37.04-40.63c1.7-1.32,4.72-0.38,3.78,2.83
		c-3.21,6.99-25.89,38.74-35.72,43.47c-6.8,3.21-21.17,0-22.68-10.39c-1.32-9.26,3.78-25.51,18.33-53.86
		c-6.05,0-10.77,0.19-12.1,0.19c-3.78,0-3.21-4.54,0.76-6.05c1.32,0.38,7.18,0.38,14.17,0.19c11.15-21.36,16.25-28.92,17.39-32.7
		c3.59-2.65,10.77,1.51,9.83,5.67C961.12,73.3,954.32,84.07,947.89,95.97z M1014.6,116.76c2.46,2.46,3.97,5.86,2.65,7.56
		c-2.83,3.78-4.16,6.61-8.69,15.88c-4.91,10.96-5.67,23.81,0.95,23.81c5.67,0,21.36-15.5,25.14-25.14c1.13-3.02,4.35-0.94,3.78,1.7
		c-4.35,10.96-14.93,25.33-20.03,27.97c-7.56,3.78-18.9-1.13-23.25-7.18c-2.83-3.97-3.4-14.74,2.08-23.62
		c-5.29,7.94-18.9,23.62-27.21,27.78c-5.29,2.46-15.69-3.78-17.01-11.34c-1.51-8.5,4.54-24,19.84-41.77
		c10.58-12.1,22.11-19.09,30.81-20.98c9.83-2.08,26.27,8.69,23.81,15.12C1025.19,111.47,1017.63,116.58,1014.6,116.76z
		 M1013.47,115.63c0.57-3.4,7.56-13.8,2.83-16.44c-5.29-2.83-18.33,2.08-34.21,22.11c-14.55,18.33-20.22,36.29-16.07,37.04
		c6.99,1.32,33.83-30.43,41.01-43.47C1008.18,112.8,1011.01,113.74,1013.47,115.63z"/>
</g>
</svg>
